<svg width="400" height="400" xmlns="http://www.w3.org/2000/svg">
 <style type="text/css">.st0{fill:#434343;}
	.st1{fill:#434444;}</style>

 <g>
  <title>background</title>
  <rect fill="none" id="canvas_background" height="402" width="582" y="-1" x="-1"/>
 </g>
 <g>
  <title>Layer 1</title>
  <g stroke="null" id="svg_1">
   <g stroke="null" id="svg_2">
    <g stroke="null" id="svg_3">
     <path stroke="null" id="svg_4" d="m237.039805,218.121847c-1.350953,-1.483911 -3.321093,-2.331859 -5.403813,-2.331859l-68.673455,0c-1.125794,0 -2.02643,0.847949 -2.02643,1.907885s0.900635,1.907885 2.02643,1.907885l68.673455,0c0.900635,0 1.801271,0.370978 2.364168,1.006939c0.562897,0.635962 0.844346,1.483911 0.731766,2.331859l-6.585897,27.293355c0,0.052997 0,0.105994 0,0.105994c-0.394028,2.278863 -2.533037,3.97476 -4.953495,3.97476l-46.833045,0c-1.125794,0 -2.02643,0.847949 -2.02643,1.907885c0,1.059936 0.900635,1.907885 2.02643,1.907885l46.833045,0c4.446888,0 8.162009,-2.967821 8.893775,-7.101572l6.585897,-27.293355c0,-0.052997 0,-0.105994 0,-0.105994c0.337738,-2.013879 -0.281449,-3.97476 -1.632402,-5.511668z" class="st0"/>
     <path stroke="null" id="svg_5" d="m173.150977,275.994358c-5.178654,0 -9.400383,3.97476 -9.400383,8.850466c0,4.875706 4.221729,8.850466 9.400383,8.850466c5.178654,0 9.400383,-3.97476 9.400383,-8.850466c0,-4.875706 -4.221729,-8.850466 -9.400383,-8.850466zm0,13.93816c-2.983355,0 -5.403813,-2.278863 -5.403813,-5.087693c0,-2.808831 2.420458,-5.087693 5.403813,-5.087693c2.983355,0 5.403813,2.278863 5.403813,5.087693c0,2.808831 -2.420458,5.087693 -5.403813,5.087693z" class="st0"/>
     <path stroke="null" id="svg_6" d="m214.917947,275.994358c-5.178654,0 -9.400383,3.97476 -9.400383,8.850466c0,4.875706 4.221729,8.850466 9.400383,8.850466c5.178654,0 9.400383,-3.97476 9.400383,-8.850466c0,-4.875706 -4.221729,-8.850466 -9.400383,-8.850466zm0,13.93816c-2.983355,0 -5.403813,-2.278863 -5.403813,-5.087693c0,-2.808831 2.420458,-5.087693 5.403813,-5.087693c2.983355,0 5.403813,2.278863 5.403813,5.087693c0,2.808831 -2.420458,5.087693 -5.403813,5.087693z" class="st0"/>
     <path stroke="null" id="svg_7" d="m222.348189,267.355879l-56.008269,0l-5.234944,-19.343834l-10.188439,-41.496499c-0.675477,-2.437853 -2.983355,-4.133751 -5.685261,-4.133751l-13.115504,0c-1.125794,0 -2.02643,0.847949 -2.02643,1.907885s0.900635,1.907885 2.02643,1.907885l13.171794,0c0.844346,0 1.576112,0.529968 1.801271,1.271923l9.569252,39.058646c0,0.15899 0,0.317981 0.05629,0.423974l0.562897,2.013879l0,0.052997c0,0 0,0 0,0.052997l5.572682,20.668754c0.225159,0.847949 1.013215,1.430914 1.91385,1.430914l0.225159,0l57.302932,0c1.125794,0 2.02643,-0.847949 2.02643,-1.907885s-0.900635,-1.907885 -1.97014,-1.907885z" class="st0"/>
    </g>
    <g stroke="null" id="XMLID_195_">
     <g stroke="null" id="XMLID_198_">
      <path stroke="null" d="m180.46864,246.475138c3.658832,-4.027757 9.681831,-6.359617 15.198224,-6.571604c4.278018,-0.15899 8.612327,0.794952 12.327448,2.702837c1.350953,0.688958 3.264804,1.907885 4.109149,2.755834c0.562897,0.529968 2.08272,-0.105994 1.463533,-0.688958c-9.006355,-8.479489 -26.231008,-7.737534 -34.505597,1.32492c-0.619187,0.688958 0.900635,1.006939 1.407243,0.476971l0,0z" class="st1" id="XMLID_7_"/>
     </g>
     <path stroke="null" d="m185.140686,229.834141c0.281449,1.112933 -0.394028,2.225866 -1.407243,2.543847c-1.069505,0.264984 -2.139009,-0.370978 -2.420458,-1.483911c-0.281449,-1.112933 0.394028,-2.225866 1.407243,-2.543847c1.069505,-0.317981 2.139009,0.370978 2.420458,1.483911z" class="st1" id="XMLID_4_"/>
     <path stroke="null" d="m212.497489,230.523099c0.281449,1.112933 -0.394028,2.225866 -1.407243,2.543847c-1.069505,0.264984 -2.139009,-0.370978 -2.420458,-1.483911s0.394028,-2.225866 1.407243,-2.543847c1.069505,-0.317981 2.195299,0.370978 2.420458,1.483911z" class="st1" id="XMLID_196_"/>
    </g>
    <g stroke="null" id="XMLID_8_">
     <path stroke="null" d="m198.199901,216.319955c-2.814486,0.317981 -5.797841,0.688958 -8.499747,-0.423974c-2.195299,-0.900946 -4.05286,-2.702837 -4.05286,-5.034697c0,-2.543847 1.91385,-4.610722 4.278018,-5.670658c2.589327,-1.16593 5.628972,-1.271923 8.443458,-0.741955c1.350953,0.264984 2.927065,0.635962 4.05286,1.377917c0.900635,0.635962 1.350953,1.748895 0.450318,2.596843c-0.619187,0.582965 -1.632402,0.847949 -2.476748,1.112933c-0.900635,0.211987 -1.801271,0.423974 -2.701906,0.582965c-4.672047,0.741955 -9.90699,0 -13.565822,-3.020818c-1.744981,-1.483911 -2.983355,-3.603783 -3.039645,-5.829649c-0.05629,-2.384856 1.294663,-4.504728 3.208514,-5.988639c3.715121,-2.914824 8.950065,-3.762773 13.622112,-3.81577c2.364168,0 4.728336,0.15899 7.036215,0.476971c1.238374,0.15899 2.476748,0.317981 3.602542,0.794952c1.238374,0.476971 2.533037,1.589904 2.195299,3.020818c-0.281449,1.218927 -1.801271,1.642901 -2.927065,1.907885c-1.407243,0.370978 -2.870776,0.582965 -4.334308,0.635962c-2.870776,0.105994 -5.741551,-0.052997 -8.612327,-0.423974c-2.645617,-0.317981 -5.291233,-0.741955 -7.88056,-1.483911c-1.857561,-0.529968 -3.771411,-1.218927 -5.347523,-2.331859c-3.433673,-2.384856 -4.503177,-6.518607 -3.039645,-10.28138c1.519822,-3.81577 5.403813,-6.147629 9.287803,-7.47255c5.178654,-1.801891 10.920205,-2.384856 16.436597,-2.119872c2.814486,0.15899 5.628972,0.582965 8.330878,1.218927c1.463533,0.370978 2.927065,0.794952 4.278018,1.271923c1.182084,0.423974 2.420458,0.900946 2.983355,2.066875c1.125794,2.119872 -1.125794,4.080754 -2.927065,4.9817c-1.91385,1.006939 -4.165439,1.589904 -6.248159,2.119872c-2.870776,0.688958 -5.854131,0.953942 -8.781196,1.112933c-2.758196,0.15899 -5.516392,0.211987 -8.274588,0.15899c-5.347523,-0.105994 -10.863915,-0.741955 -15.704831,-3.020818c-4.221729,-2.013879 -8.387168,-6.041636 -7.317663,-10.864345c0.506607,-2.278863 2.307878,-4.239744 4.165439,-5.723655c1.91385,-1.483911 4.165439,-2.543847 6.529607,-3.338799c4.840916,-1.642901 10.075859,-2.225866 15.254513,-2.49085c5.797841,-0.15899 11.426813,0.105994 17.055784,1.006939c2.814486,0.476971 5.628972,1.112933 8.387168,1.854888c0.225159,0.052997 0.844346,-0.211987 0.562897,-0.317981c-6.191869,-1.695898 -12.552607,-2.702837 -18.969635,-2.914824c-5.741551,-0.15899 -11.595682,0.211987 -17.224653,1.32492c-5.122364,1.006939 -10.526177,2.861827 -14.01614,6.677597c-1.744981,1.907885 -2.814486,4.133751 -2.420458,6.677597c0.394028,2.49085 1.857561,4.663719 3.88399,6.30662c4.334308,3.497789 10.413598,4.716716 15.92999,5.14069c2.983355,0.211987 6.023,0.211987 9.006355,0.105994c3.152224,-0.105994 6.304448,-0.211987 9.400383,-0.741955c2.589327,-0.423974 5.178654,-1.112933 7.599112,-2.013879c1.97014,-0.741955 3.99657,-1.801891 4.953495,-3.65678c0.506607,-0.953942 0.394028,-2.013879 -0.281449,-2.914824c-0.788056,-1.006939 -2.02643,-1.430914 -3.264804,-1.854888c-2.927065,-1.059936 -5.96671,-1.748895 -9.062644,-2.119872c-6.079289,-0.794952 -12.271158,-0.370978 -18.181579,1.218927c-4.334308,1.16593 -8.893775,3.179808 -11.257943,6.942581c-2.251589,3.603783 -1.97014,8.479489 1.407243,11.341316c1.576112,1.377917 3.602542,2.225866 5.628972,2.861827c2.645617,0.847949 5.460103,1.32492 8.218299,1.695898c3.095934,0.370978 6.304448,0.635962 9.456672,0.476971c1.463533,-0.052997 2.927065,-0.264984 4.334308,-0.635962c1.013215,-0.264984 2.251589,-0.582965 3.039645,-1.271923c0.788056,-0.688958 0.900635,-1.801891 0.394028,-2.702837c-0.619187,-1.059936 -1.857561,-1.589904 -3.039645,-1.907885c-2.420458,-0.635962 -5.066075,-0.847949 -7.542822,-1.006939c-5.009785,-0.264984 -10.413598,0.317981 -14.860485,2.64984c-2.139009,1.16593 -4.05286,2.755834 -4.953495,4.9817c-0.956925,2.278863 -0.450318,4.769712 0.956925,6.783591c2.814486,4.027757 8.612327,5.405674 13.453242,5.14069c1.744981,-0.105994 11.201654,-1.218927 8.443458,-4.610722c-0.788056,-1.006939 -2.420458,-1.430914 -3.658832,-1.748895c-1.350953,-0.370978 -2.814486,-0.529968 -4.221729,-0.582965c-2.645617,-0.052997 -5.403813,0.529968 -7.599112,1.907885c-1.97014,1.271923 -3.433673,3.391796 -3.208514,5.723655c0.225159,2.437853 2.364168,4.186748 4.672047,4.928703c2.701906,0.900946 5.685261,0.582965 8.443458,0.264984c0.337738,-0.052997 0.619187,-0.423974 0.112579,-0.370978l0,0z" class="st1" id="XMLID_6_"/>
    </g>
   </g>
   <g stroke="null" id="svg_8">
    <path stroke="null" id="svg_9" d="m193.978172,331.799994c-61.074343,0 -110.778163,-46.796179 -110.778163,-104.297713c0,-57.501534 49.70382,-104.297713 110.778163,-104.297713c61.074343,0 110.721874,46.796179 110.721874,104.297713c0.05629,57.501534 -49.64753,104.297713 -110.721874,104.297713zm0,-204.885649c-58.935334,0 -106.837883,45.100281 -106.837883,100.587936s47.902549,100.587936 106.837883,100.587936s106.837883,-45.100281 106.837883,-100.587936s-47.902549,-100.587936 -106.837883,-100.587936z" class="st1"/>
   </g>
  </g>
  <text stroke="#000" transform="matrix(0.7607689499855042,0,0,0.7777777910232544,78.66963560320437,16.322915693745017) " font-weight="bold" xml:space="preserve" text-anchor="start" font-family="Euphoria, sans-serif" font-size="24" id="svg_10" y="118.595981" x="23.122835" stroke-width="0" fill="#333333">YOUR CART IS EMPTY</text>
 </g>
</svg>