<svg width="400" height="400" xmlns="http://www.w3.org/2000/svg">
 <style type="text/css">.st0{fill:#434343;}
	.st1{fill:#434444;}</style>

 <g>
  <title>background</title>
  <rect x="-1" y="-1" width="402" height="402" id="canvas_background" fill="none"/>
 </g>
 <g>
  <title>Layer 1</title>
  <g stroke="null" id="svg_1">
   <g stroke="null" id="svg_2">
    <g stroke="null" id="svg_3">
     <path stroke="null" class="st0" d="m270.56713,208.12185c-1.320464,-1.48391 -3.246132,-2.33186 -5.281838,-2.33186l-67.12326,0c-1.100387,0 -1.980687,0.84795 -1.980687,1.90788s0.8803,1.90789 1.980687,1.90789l67.12326,0c0.88031,0 1.760609,0.37098 2.310803,1.00694c0.550193,0.63596 0.82529,1.48391 0.715251,2.33186l-6.437234,27.29335c0,0.053 0,0.10599 0,0.10599c-0.385135,2.27887 -2.475861,3.97476 -4.841683,3.97476l-45.775861,0c-1.100387,0 -1.980687,0.84795 -1.980687,1.90789c0,1.05994 0.8803,1.90788 1.980687,1.90788l45.775861,0c4.346509,0 7.977766,-2.96782 8.693018,-7.10157l6.437234,-27.29335c0,-0.053 0,-0.106 0,-0.106c0.330106,-2.01388 -0.275097,-3.97476 -1.595561,-5.51166l0.00001,0z" id="svg_4"/>
     <path stroke="null" class="st0" d="m208.120485,265.994361c-5.06176,0 -9.188192,3.97476 -9.188192,8.85046c0,4.87571 4.126431,8.85047 9.188192,8.85047c5.061751,0 9.188182,-3.97476 9.188182,-8.85047c0,-4.8757 -4.126431,-8.85046 -9.188182,-8.85046zm0,13.93816c-2.916016,0 -5.281838,-2.27887 -5.281838,-5.0877c0,-2.80883 2.365822,-5.08769 5.281838,-5.08769c2.916006,0 5.281828,2.27886 5.281828,5.08769c0,2.80884 -2.365822,5.0877 -5.281828,5.0877z" id="svg_5"/>
     <path stroke="null" class="st0" d="m248.944634,265.994361c-5.06176,0 -9.188192,3.97476 -9.188192,8.85046c0,4.87571 4.126431,8.85047 9.188192,8.85047c5.061751,0 9.188182,-3.97476 9.188182,-8.85047c0,-4.8757 -4.126431,-8.85046 -9.188182,-8.85046zm0,13.93816c-2.916016,0 -5.281838,-2.27887 -5.281838,-5.0877c0,-2.80883 2.365822,-5.08769 5.281838,-5.08769c2.916006,0 5.281828,2.27886 5.281828,5.08769c0,2.80884 -2.365822,5.0877 -5.281828,5.0877z" id="svg_6"/>
     <path stroke="null" class="st0" d="m256.207149,257.355881l-54.743976,0l-5.11677,-19.34383l-9.958453,-41.4965c-0.660232,-2.43786 -2.916016,-4.13375 -5.556925,-4.13375l-12.819449,0c-1.100377,0 -1.980687,0.84794 -1.980687,1.90788s0.88031,1.90788 1.980687,1.90788l12.874468,0c0.82528,0 1.540532,0.52997 1.760609,1.27193l9.35324,39.05864c0,0.15899 0,0.31798 0.055019,0.42398l0.550193,2.01388l0,0.05299c0,0 0,0 0,0.053l5.446886,20.66875c0.220077,0.84795 0.990338,1.43092 1.870648,1.43092l0.220077,0l56.009411,0c1.100377,0 1.980687,-0.84795 1.980687,-1.90789s-0.88031,-1.90788 -1.925667,-1.90788z" id="svg_7"/>
    </g>
    <g stroke="null" id="XMLID_195_">
     <g stroke="null" id="XMLID_198_">
      <path stroke="null" id="XMLID_7_" class="st1" d="m215.272961,236.475141c3.576238,-4.02776 9.463279,-6.35962 14.855145,-6.57161c4.181451,-0.15899 8.417921,0.79496 12.049178,2.70284c1.320464,0.68896 3.191112,1.90789 4.016393,2.75583c0.550193,0.52997 2.035706,-0.10599 1.430493,-0.68895c-8.803046,-8.47949 -25.638878,-7.73754 -33.726683,1.32492c-0.605213,0.68895 0.8803,1.00694 1.375474,0.47697l0,0z"/>
     </g>
     <path stroke="null" id="XMLID_4_" class="st1" d="m219.839547,219.834141c0.275087,1.11293 -0.385135,2.22587 -1.375484,2.54385c-1.045358,0.26498 -2.090725,-0.37098 -2.365822,-1.48391c-0.275087,-1.11294 0.385135,-2.22587 1.375484,-2.54385c1.045358,-0.31798 2.090725,0.37098 2.365822,1.48391z"/>
     <path stroke="null" id="XMLID_196_" class="st1" d="m246.578812,220.523101c0.275097,1.11293 -0.385135,2.22586 -1.375474,2.54385c-1.045368,0.26498 -2.090725,-0.37098 -2.365822,-1.48392s0.385135,-2.22586 1.375474,-2.54384c1.045368,-0.31798 2.145745,0.37098 2.365822,1.48391z"/>
    </g>
    <g stroke="null" id="XMLID_8_">
     <path stroke="null" id="XMLID_6_" class="st1" d="m232.603967,206.31995c-2.750948,0.31799 -5.666963,0.68896 -8.307882,-0.42397c-2.145745,-0.90094 -3.961373,-2.70284 -3.961373,-5.0347c0,-2.54384 1.870648,-4.61072 4.181451,-5.67065c2.53088,-1.16593 5.501905,-1.27193 8.252863,-0.74196c1.320455,0.26499 2.860986,0.63596 3.961373,1.37792c0.8803,0.63596 1.320455,1.74889 0.440155,2.59684c-0.605213,0.58297 -1.595551,0.84795 -2.420841,1.11293c-0.8803,0.21199 -1.760609,0.42398 -2.640919,0.58297c-4.566576,0.74195 -9.683356,0 -13.259594,-3.02082c-1.70559,-1.48391 -2.916006,-3.60378 -2.971025,-5.82965c-0.055019,-2.38485 1.265435,-4.50473 3.136083,-5.98864c3.631257,-2.91482 8.748037,-3.76277 13.314613,-3.81577c2.310803,0 4.621606,0.15899 6.877389,0.47697c1.210416,0.15899 2.420841,0.31799 3.521219,0.79496c1.210416,0.47697 2.475861,1.5899 2.145745,3.02081c-0.275097,1.21893 -1.760609,1.64291 -2.860996,1.90789c-1.375474,0.37098 -2.805967,0.58296 -4.23646,0.63596c-2.805977,0.106 -5.611944,-0.053 -8.417921,-0.42397c-2.585899,-0.31798 -5.171789,-0.74196 -7.702669,-1.48391c-1.815629,-0.52997 -3.686277,-1.21893 -5.226809,-2.33186c-3.35617,-2.38486 -4.401528,-6.51861 -2.971035,-10.28138c1.485513,-3.81577 5.281828,-6.14763 9.078143,-7.47255c5.06176,-1.80189 10.673704,-2.38486 16.065571,-2.11987c2.750958,0.15899 5.501905,0.58296 8.142824,1.21892c1.430493,0.37098 2.860986,0.79495 4.181451,1.27193c1.155396,0.42397 2.365822,0.90094 2.916006,2.06687c1.100387,2.11987 -1.100377,4.08075 -2.860986,4.9817c-1.870648,1.00694 -4.071412,1.5899 -6.107118,2.11987c-2.805977,0.68896 -5.721983,0.95394 -8.582979,1.11293c-2.695928,0.15899 -5.391867,0.21199 -8.087805,0.15899c-5.226809,-0.10599 -10.618675,-0.74195 -15.350319,-3.02081c-4.126431,-2.01388 -8.197834,-6.04164 -7.152476,-10.86435c0.495174,-2.27886 2.255783,-4.23974 4.071412,-5.72365c1.870648,-1.48391 4.071412,-2.54385 6.382215,-3.3388c4.731634,-1.6429 9.848414,-2.22587 14.910165,-2.49085c5.666963,-0.15899 11.168869,0.10599 16.670774,1.00694c2.750958,0.47697 5.501915,1.11293 8.197843,1.85488c0.220077,0.053 0.82529,-0.21198 0.550193,-0.31798c-6.052099,-1.69589 -12.269256,-2.70283 -18.541432,-2.91482c-5.611944,-0.15899 -11.333927,0.21199 -16.835832,1.32492c-5.006731,1.00694 -10.288569,2.86183 -13.699749,6.6776c-1.70559,1.90788 -2.750958,4.13375 -2.365822,6.67759c0.385135,2.49085 1.815629,4.66372 3.796315,6.30662c4.23647,3.49779 10.17853,4.71672 15.570397,5.14069c2.916016,0.21199 5.887041,0.21199 8.803056,0.106c3.081064,-0.106 6.162137,-0.21199 9.188182,-0.74196c2.53088,-0.42397 5.061751,-1.11293 7.427573,-2.01388c1.925667,-0.74195 3.906354,-1.80189 4.841683,-3.65678c0.495164,-0.95394 0.385135,-2.01388 -0.275097,-2.91482c-0.770271,-1.00694 -1.980687,-1.43091 -3.191112,-1.85489c-2.860986,-1.05993 -5.832021,-1.74889 -8.858066,-2.11987c-5.94206,-0.79495 -11.994159,-0.37098 -17.771161,1.21893c-4.23647,1.16593 -8.693008,3.1798 -11.003811,6.94258c-2.200764,3.60378 -1.925667,8.47949 1.375474,11.34131c1.540532,1.37792 3.521219,2.22587 5.501905,2.86183c2.585899,0.84795 5.336857,1.32492 8.032785,1.6959c3.026054,0.37098 6.162137,0.63596 9.243201,0.47697c1.430503,-0.053 2.860996,-0.26498 4.23647,-0.63596c0.990348,-0.26499 2.200764,-0.58297 2.971035,-1.27193c0.770261,-0.68895 0.8803,-1.80189 0.385126,-2.70283c-0.605203,-1.05994 -1.815629,-1.58991 -2.971025,-1.90789c-2.365822,-0.63596 -4.951722,-0.84795 -7.372553,-1.00694c-4.896702,-0.26498 -10.17853,0.31799 -14.525039,2.64984c-2.090725,1.16593 -3.961373,2.75584 -4.841673,4.9817c-0.935329,2.27887 -0.440155,4.76972 0.935319,6.7836c2.750958,4.02775 8.417921,5.40567 13.149555,5.14069c1.7056,-0.106 10.948801,-1.21893 8.252863,-4.61073c-0.770261,-1.00694 -2.365822,-1.43091 -3.576238,-1.74889c-1.320455,-0.37098 -2.750958,-0.52997 -4.126431,-0.58297c-2.585899,-0.05299 -5.281828,0.52997 -7.427573,1.90789c-1.925667,1.27192 -3.356161,3.39179 -3.136083,5.72365c0.220068,2.43786 2.310793,4.18675 4.566576,4.92871c2.640919,0.90094 5.556925,0.58296 8.252863,0.26498c0.330116,-0.053 0.605213,-0.42397 0.110039,-0.37098l0,0z"/>
    </g>
   </g>
   <g stroke="null" id="svg_8">
    <path stroke="null" class="st1" d="m228.477535,321.799991c-59.695687,0 -108.277526,-46.79617 -108.277526,-104.297711c0,-57.501531 48.581838,-104.297711 108.277526,-104.297711c59.695687,0 108.222516,46.79618 108.222516,104.297711c0.055019,57.501541 -48.526819,104.297711 -108.222516,104.297711zm0,-204.885642c-57.604962,0 -104.426191,45.10028 -104.426191,100.587931s46.821229,100.587941 104.426191,100.587941s104.426201,-45.10028 104.426201,-100.587941s-46.821229,-100.587931 -104.426201,-100.587931z" id="svg_9"/>
   </g>
  </g>
  <text stroke="#000" transform="matrix(0.764580249786377,0,0,0.8889531493186951,80.51355457305908,9.440717414952815) " fill="#333333" stroke-width="0" x="62.641802" y="108.149471" id="svg_10" font-size="24" font-family="Euphoria, sans-serif" text-anchor="start" xml:space="preserve" font-weight="bold">YOUR CART IS EMPTY</text>
 </g>
</svg>